# xmcd
#
# Track frame offsets:
#	150
#	14734
#	28038
#	39172
# Disc length: 711 seconds
# Revision: 1
# Processed by: cddbd v1.5.2PL0 Copyright (c) Steve Scherf et al.
#
# Submitted via: libkcddb 0.31
#
DISCID=2802c504
DTITLE=The BladeRunners - Teaser
DYEAR=2007
DGENRE=Bluegrass
TTITLE0=Lonely Quit Knocking On My Door
TTITLE1=Heart Trouble
TTITLE2=Crazy Heart
TTITLE3=Do You Wonder Why
EXTD=
EXTT0=
EXTT1=
EXTT2=
EXTT3=
PLAYORDER=
